<?xml version="1.0" standalone="no"?>
<!DOCTYPE svg PUBLIC "-//W3C//DTD SVG 20010904//EN"
 "http://www.w3.org/TR/2001/REC-SVG-20010904/DTD/svg10.dtd">
<svg version="1.0" xmlns="http://www.w3.org/2000/svg"
 width="192.000000pt" height="192.000000pt" viewBox="0 0 192.000000 192.000000"
 preserveAspectRatio="xMidYMid meet">

<g transform="translate(0.000000,192.000000) scale(0.100000,-0.100000)"
fill="#000000" stroke="none">
<path d="M840 1795 l-115 -115 -200 0 c-143 0 -204 -3 -213 -12 -16 -16 -16
-87 0 -93 7 -2 32 -9 54 -15 52 -13 92 -52 100 -97 7 -35 5 -37 -227 -269
l-234 -234 233 -233 c250 -250 251 -251 212 -314 -15 -25 -32 -36 -82 -51 -58
-18 -63 -22 -66 -50 -2 -17 2 -40 8 -52 10 -19 19 -20 213 -20 l202 0 117
-117 118 -118 128 128 127 127 60 -10 c73 -12 315 -13 333 -1 9 5 12 24 10 52
l-3 44 -62 13 c-47 10 -72 23 -105 52 l-43 39 255 255 255 256 -225 227 c-152
154 -233 244 -249 276 -28 56 -91 116 -158 151 -30 15 -99 76 -183 160 -74 75
-137 136 -140 136 -3 0 -57 -52 -120 -115z m208 -39 c45 -46 82 -85 82 -87 0
-2 -74 0 -166 5 l-165 9 78 79 c42 43 80 78 83 78 4 0 43 -38 88 -84z m-21
-208 c74 -12 142 -53 174 -105 26 -42 36 -149 20 -209 -6 -23 -29 -62 -51 -87
-32 -36 -54 -50 -103 -66 -94 -30 -160 -41 -246 -41 -127 0 -123 -8 -119 247
l3 213 28 27 c41 42 136 48 294 21z m-557 -588 c0 -209 -3 -380 -8 -380 -4 0
-93 86 -197 190 l-190 190 190 190 c104 105 193 190 197 190 5 0 8 -171 8
-380z m1200 175 l175 -175 -230 -230 c-126 -127 -235 -230 -241 -230 -18 0
-225 390 -222 418 2 20 16 29 83 56 94 37 145 73 185 131 30 44 60 131 60 177
0 15 3 28 8 28 4 0 86 -79 182 -175z m-812 -218 c12 -7 31 -28 41 -47 10 -19
80 -147 155 -284 75 -137 136 -256 136 -265 0 -9 -52 -68 -115 -131 l-115
-115 -80 80 -80 80 30 8 c30 7 31 10 28 54 l-3 47 -49 12 c-59 15 -93 46 -107
97 -16 60 -1 444 18 463 18 18 109 18 141 1z"/>
</g>
</svg>
